<?xml version="1.0" encoding="UTF-8"?>
<svg width="1200pt" height="1200pt" version="1.1" viewBox="0 0 1200 1200" xmlns="http://www.w3.org/2000/svg">
 <path d="m1200 225v-6.5625c0-51.875-7.8008-93.445-23.438-124.69-15.637-30.625-37.5-53.746-65.629-69.371-28.125-16.25-66.562-24.375-115.3-24.375h-28.129c-42.492 0-75.637 7.5-99.371 22.5-24.371 15-43.129 30.938-56.258 47.809s-25.309 40.309-36.562 70.309l-4.6914 10.309c-13.754 36.875-20.629 84.996-20.629 144.37v222.19l81.562 25.309 257.81 56.258 26.258-60.938c16.871-40.621 34.992-88.754 54.371-144.37 20.004-56.246 30.012-112.49 30.012-168.75" fill="#010101"/>
 <path d="m429.37 375.94-4.6914-10.309c-11.258-30-23.438-53.438-36.562-70.309-13.129-16.871-31.871-32.809-56.258-47.809-23.746-15-56.879-22.5-99.371-22.5h-28.129c-48.742 0-87.191 8.125-115.31 24.371-28.129 15.625-50.004 38.746-65.629 69.371-15.609 31.25-23.422 72.805-23.422 124.68v6.5625c0 56.258 9.9961 112.5 30 168.74 19.379 55.621 37.5 103.75 54.371 144.37l26.258 60.938 257.81-56.258 81.562-25.309v-222.18c0-59.363-6.875-107.5-20.629-144.37" fill="#010101"/>
 <path d="m949.69 918.74c13.754-12.492 26.555-31.57 38.438-57.191l3.7422-6.5625c14.363-30.637 27.492-64.379 39.371-101.26l17.809-56.258-192.19-51.562-129.37-18.742-26.258 59.062c-17.508 39.371-26.258 78.742-26.258 118.13v16.871c0 27.492 4.3789 49.379 13.129 65.629 8.1367 16.246 15.938 29.363 23.438 39.371 7.5 10.008 18.742 20.629 33.742 31.871h0.9375c15 11.258 36.863 16.871 65.629 16.871h3.7422c31.246 0 58.129-6.2539 80.629-18.742 21.902-11.867 39.711-24.359 53.473-37.488" fill="#010101"/>
 <path d="m488.44 1151.3c7.5-10.008 15.312-23.137 23.438-39.371 8.7461-16.246 13.129-38.137 13.129-65.629v-16.871c0-39.371-8.7461-78.742-26.258-118.13l-26.258-59.062-129.37 18.742-192.19 51.562 17.809 56.258c11.879 36.863 24.996 70.621 39.371 101.26l3.7422 6.5625c11.879 25.621 24.684 44.699 38.438 57.191 13.754 13.129 31.559 25.621 53.438 37.5 22.5 12.492 49.379 18.742 80.629 18.742h3.7422c28.754 0 50.629-5.6289 65.629-16.871h0.9375c15.031-11.27 26.277-21.887 33.777-31.883" fill="#010101"/>
</svg>
